<svg xmlns="http://www.w3.org/2000/svg" viewBox="0 0 64 64">
  <rect width="64" height="64" rx="14" fill="#111010"/>
  <path d="M30 22.4c-1.7-1.7-4.1-2.7-7-2.7-6 0-10.4 4.8-10.4 12.3 0 7.4 4.5 12.3 10.5 12.3 2.9 0 5.4-1 7.1-2.8l-2.6-3.1c-1.2 1.2-2.6 1.8-4.3 1.8-3.8 0-6.2-3.1-6.2-8.2 0-5.2 2.4-8.2 6.1-8.2 1.7 0 3 .6 4.2 1.7L30 22.4Z" fill="#fff"/>
  <path d="M50.7 23.1c-2-2.2-4.5-3.3-7.7-3.3-4.8 0-8 2.8-8 6.8 0 3.6 2.1 5.7 7 7l2.4.6c2.1.5 3 1.4 3 2.9 0 1.9-1.7 3.1-4.3 3.1-2.4 0-4.4-.9-6.2-2.8l-2.8 3.1c2.2 2.5 5.2 3.8 8.9 3.8 5.3 0 8.8-2.9 8.8-7.4 0-3.7-2.1-5.8-7.1-7.1l-2.4-.6c-2.1-.5-3-1.3-3-2.7 0-1.7 1.5-2.8 3.7-2.8 2 0 3.6.7 5.2 2.3l2.5-2.9Z" fill="#fff"/>
</svg>
